<svg width="166" height="188" viewBox="0 0 166 188" fill="none" xmlns="http://www.w3.org/2000/svg">
<path d="M72.6941 168.636C72.5901 168.506 62.1991 155.64 60.0851 152.876C58.7641 151.149 56.7781 150.198 54.4921 150.198C51.9321 150.198 49.6561 151.368 48.9801 151.751L43.4941 154.494C41.7211 154.015 37.9071 152.544 34.2141 148.226C30.9301 144.387 30.9531 139.24 31.1281 137.127L37.0211 131.234C40.1141 128.517 39.4731 124.718 38.2671 122.803L38.0481 122.492C38.0481 122.492 25.1861 106.271 23.3821 103.994C22.3931 102.745 20.9071 102.056 19.1981 102.056C16.3491 102.056 13.3191 104.031 12.4421 104.648C1.55711 112.397 0.856109 119.21 0.811109 119.961L0.787109 120.375L0.861109 120.784C7.27311 156.51 26.8871 171.921 36.3141 179.327C37.4621 180.228 38.4541 181.008 39.1681 181.633C45.7311 187.38 52.9301 188 55.7211 188C58.0961 187.999 60.2011 187.595 61.8101 186.829C66.1761 184.751 71.2351 178.819 72.6821 177.051C75.1831 173.992 73.9651 170.452 72.8501 168.843L72.6941 168.636ZM58.8011 180.509C58.3021 180.746 57.2311 181 55.7201 181C54.1601 181 48.6881 180.666 43.7761 176.368C42.9221 175.621 41.8631 174.789 40.6371 173.825C31.9431 166.995 13.9081 152.824 7.85711 120.141C8.14611 119.162 9.68611 115.203 16.4771 110.37C17.1291 109.917 17.9851 109.466 18.5961 109.228C21.4271 112.8 30.0061 123.62 32.0981 126.258L24.5701 133.785L24.3671 134.84C24.2861 135.262 22.4561 145.249 28.8941 152.777C35.1801 160.126 42.1441 161.444 43.4771 161.633L44.5591 161.787L52.2031 157.964L52.4211 157.846C52.7021 157.679 53.7561 157.198 54.4921 157.198C54.5281 157.198 54.5571 157.199 54.5801 157.201C56.7291 160.001 65.6851 171.098 67.0801 172.825C67.0811 172.829 67.0821 172.832 67.0841 172.835C64.5221 175.93 60.9111 179.504 58.8011 180.509Z" fill="white"/>
<path d="M132.85 59.824C138.362 54.647 140.006 47.849 137.883 39.041C137.676 38.185 137.035 37.5 136.194 37.239C135.352 36.977 134.434 37.179 133.78 37.769L125.559 45.172C124.121 44.377 121.883 42.721 121.094 39.842L127.897 33.113C128.844 32.175 128.889 30.66 128.001 29.667L127.815 29.46C127.622 29.244 127.393 29.064 127.137 28.927C126.977 28.841 123.149 26.811 118.313 26.811C113.604 26.811 109.454 28.732 106.311 32.367C100.311 39.305 101.754 47.409 102.768 50.838L99.2802 54.326L88.9962 45.09L93.7132 41.824L73.6712 28.1L63.0702 38.703L76.7942 58.744L80.0602 54.027L89.2972 64.309L86.0022 67.603C84.5022 67.125 82.1192 66.551 79.3392 66.551C73.9102 66.551 69.1032 68.725 65.3772 72.91C65.1062 73.239 58.7782 81.075 62.6262 91.531C62.9102 92.304 63.5572 92.887 64.3552 93.091C65.1512 93.294 66.0002 93.092 66.6192 92.55L74.9142 85.291C76.2372 85.858 78.5362 87.371 79.5732 91.216L72.1892 98.732C71.5552 99.377 71.3192 100.314 71.5722 101.182C71.8252 102.05 72.5262 102.714 73.4072 102.919C73.5172 102.944 76.1312 103.542 79.5822 103.542C86.4222 103.542 91.6942 101.271 94.8272 96.975C98.1902 92.362 98.9212 87.542 98.8212 83.887L115.038 100.104L115.21 100.262C116.731 101.522 119.528 102.987 122.661 102.987C124.888 102.987 127.286 102.246 129.513 100.163L135.031 94.647L135.133 94.543C140.145 89.185 137.391 82.845 135.233 80.241L118.288 63.282C119.315 63.388 120.436 63.463 121.61 63.463C126.498 63.462 130.279 62.238 132.85 59.824ZM79.5512 45.978L76.8172 49.927L69.5412 39.302L74.2722 34.57L84.8972 41.846L80.9472 44.58L95.7392 57.866L91.6452 61.959L92.8362 60.767L79.5512 45.978ZM93.1132 79.502C93.2222 79.815 95.7282 87.248 90.7852 94.029C88.0152 97.827 83.0372 98.555 79.3852 98.541L84.0882 93.754C84.6542 93.178 84.9082 92.363 84.7682 91.567C82.9772 81.42 75.0232 80.083 74.6852 80.031C73.9562 79.921 73.2142 80.135 72.6582 80.62L66.4542 86.048C65.9322 80.488 68.8672 76.559 69.2132 76.116C71.9342 73.086 75.3402 71.55 79.3382 71.55C82.8532 71.55 85.5692 72.761 85.5872 72.77C86.5402 73.209 87.6632 73.011 88.4052 72.269L107.405 53.269C108.13 52.545 108.339 51.453 107.932 50.513C107.897 50.43 104.438 42.173 110.09 35.637C112.285 33.098 115.051 31.811 118.311 31.811C119.541 31.811 120.694 31.994 121.676 32.232L116.629 37.225C116.078 37.769 115.811 38.537 115.904 39.305C116.916 47.605 124.873 50.382 125.211 50.496C126.066 50.784 127.012 50.59 127.684 49.985L133.733 44.538C134.106 49.402 132.713 53.092 129.424 56.18C127.416 58.067 124.065 58.463 121.606 58.463C117.917 58.463 114.655 57.598 114.624 57.59C113.759 57.354 112.829 57.604 112.194 58.243L93.6942 76.91C93.0232 77.587 92.8012 78.6 93.1132 79.502ZM98.6152 81.344C98.6152 81.347 98.6152 81.349 98.6152 81.352C98.6152 81.349 98.6152 81.347 98.6152 81.344ZM98.4342 80.223C98.4442 80.275 98.4542 80.327 98.4632 80.381C98.4532 80.329 98.4432 80.274 98.4342 80.223ZM131.525 91.079L126.046 96.555C122.798 99.535 119.146 96.987 118.47 96.468L99.8272 77.823L114.768 62.748L112.733 64.801L131.44 83.507C131.9 84.099 134.537 87.794 131.525 91.079ZM116.316 63.025C116.324 63.026 116.332 63.027 116.339 63.029C116.332 63.027 116.324 63.026 116.316 63.025ZM115.473 62.882C115.493 62.886 115.518 62.89 115.539 62.894C115.516 62.89 115.494 62.886 115.473 62.882Z" fill="white"/>
<path d="M99.1622 0.00195312C62.7542 0.00195312 33.2402 29.516 33.2402 65.924C33.2402 99.441 58.2602 127.096 90.6382 131.278V157.502C90.6382 157.502 148.077 136.259 162.607 83.88C162.685 83.597 162.746 83.342 162.818 83.068C162.931 82.644 163.043 82.218 163.148 81.791C163.212 81.528 163.267 81.277 163.326 81.022C164.463 76.171 165.084 71.121 165.084 65.924C165.084 29.516 135.57 0.00195312 99.1622 0.00195312ZM156.51 79.424L156.504 79.451L156.498 79.478L156.469 79.608C156.43 79.778 156.393 79.947 156.35 80.123C156.256 80.499 156.159 80.8739 156.049 81.284L155.945 81.684C155.92 81.792 155.892 81.9 155.863 82.008C150.299 102.064 137.343 119.708 117.357 134.45C109.984 139.888 102.949 143.914 97.6382 146.625V131.277V125.123L91.5342 124.335C62.2912 120.558 40.2392 95.446 40.2392 65.923C40.2392 33.4329 66.6712 7.00095 99.1612 7.00095C131.649 7.00095 158.083 33.4329 158.083 65.923C158.084 70.432 157.555 74.974 156.51 79.424Z" fill="white"/>
</svg>
