<svg width="102" height="133" viewBox="0 0 102 133" fill="none" xmlns="http://www.w3.org/2000/svg">
<path d="M87.25 30.333C95.3962 30.333 102 23.7292 102 15.583C102 7.43681 95.3962 0.833008 87.25 0.833008C79.1038 0.833008 72.5 7.43681 72.5 15.583C72.5 23.7292 79.1038 30.333 87.25 30.333Z" fill="#3A3A3A"/>
<path d="M33.875 86.25L26.801 104.125L3.97604 119.042C1.80804 120.274 0.342041 122.601 0.342041 125.272C0.342041 129.23 3.55004 132.439 7.50904 132.439C9.04404 132.439 10.464 131.952 11.63 131.129C15.391 128.758 33.981 117.045 37.125 115.249C40.625 113.249 41.25 110.124 41.25 110.124L46.125 94.124C46.125 94.124 46.125 94.124 40.375 91.499C34.625 88.874 33.875 86.25 33.875 86.25Z" fill="#3A3A3A"/>
<path d="M84.083 88.168C84.083 88.168 82.925 84.334 79.504 83.001C76.083 81.668 61.417 75.251 61.417 75.251L76.833 49.667C76.833 49.667 80.667 40.667 76.5 36.25C72.333 31.833 62.75 26.5 62.75 26.5H36L16.085 40.927C15.643 41.18 15.232 41.48 14.855 41.818L14.824 41.84L14.826 41.843C13.381 43.154 12.468 45.041 12.468 47.146C12.468 51.104 15.676 54.313 19.635 54.313C21.183 54.313 22.613 53.817 23.784 52.982L23.786 52.985L23.857 52.927C24.039 52.794 24.214 52.654 24.382 52.504L39.125 40.623H55L40.25 66.832C40.25 66.832 35.116 76.046 39.916 81.082C44.125 85.498 52.583 87.998 52.583 87.998L69.833 94.499L74.934 125.79L74.943 125.789C75.492 129.202 78.442 131.812 82.01 131.812C85.968 131.812 89.176 128.603 89.176 124.645C89.176 124.456 89.162 124.27 89.148 124.085L89.176 124.081L84.083 88.168Z" fill="#3A3A3A"/>
</svg>
